<svg width="288" height="332" viewBox="0 0 288 332" fill="none" xmlns="http://www.w3.org/2000/svg">
<path d="M70.2547 181.52C71.0067 182.096 71.5187 182.4 72.7667 183.056C73.0067 182.4 73.2147 181.984 73.6147 181.328C72.4467 180.88 71.5507 180.384 70.5907 179.648C69.3747 178.704 68.7507 177.984 68.0307 176.672H66.2067C65.6467 177.872 64.9747 178.784 63.9347 179.76C63.0387 180.592 62.1107 181.232 61.1187 181.744C61.5347 182.192 61.6947 182.416 62.1587 183.184C63.1027 182.608 63.7267 182.16 64.4787 181.488V182.704C64.8627 182.64 65.1987 182.624 65.8227 182.624H68.9267C69.5347 182.624 69.8707 182.64 70.2547 182.688V181.52ZM65.6947 181.088C65.3427 181.088 65.2467 181.088 64.9267 181.072C65.9987 180.048 66.3187 179.632 67.1987 178.256C67.9827 179.488 68.5267 180.096 69.6947 181.072C69.5027 181.088 69.3747 181.088 69.0547 181.088H65.6947ZM65.5187 185.568V189.344C65.5187 190.208 65.4867 190.784 65.4067 191.312H67.3587C67.2787 190.8 67.2467 190.256 67.2467 189.344V185.568H70.3187V187.968C70.3187 188.304 70.2387 188.352 69.7427 188.352C69.3427 188.352 68.7987 188.288 68.0627 188.176C68.2707 188.72 68.3667 189.264 68.3987 189.936C69.1347 189.984 69.4707 190 69.8547 190C71.5027 190 72.0307 189.632 72.0307 188.464V185.504C72.0307 184.72 72.0467 184.32 72.0947 183.872C71.7427 183.92 71.4547 183.936 70.5427 183.936H64.6387C63.8227 183.936 63.2787 183.904 62.8147 183.856V185.664C63.3587 185.6 63.8707 185.568 64.6227 185.568H65.5187ZM58.7027 178.272C59.6467 179.248 60.1267 179.888 60.9267 181.248L62.2867 179.968C61.4867 178.736 61.0067 178.128 60.0627 177.104L58.7027 178.272ZM60.9267 183.888C60.4147 185.488 59.9827 186.592 59.4227 187.76C59.1027 188.4 58.9427 188.656 58.4307 189.312L59.9667 190.688C60.0947 190.4 60.1747 190.224 60.3187 189.936C61.3267 187.84 61.7587 186.752 62.3027 185.024L60.9267 183.888ZM86.7667 188.576C86.4467 188.608 86.1427 188.624 85.3907 188.624H85.0227V187.744H85.6627C86.2227 187.744 86.3027 187.744 86.6547 187.76C86.6387 187.504 86.6227 187.296 86.6227 187.008V185.504C86.6227 185.168 86.6227 185.024 86.6547 184.768C86.5427 184.784 86.2067 184.8 85.6467 184.8H85.0227V184.064H85.3587C85.9667 184.064 86.2547 184.08 86.7027 184.128V182.704C86.3507 182.752 86.0147 182.768 85.2627 182.768H82.4467C81.6787 182.768 81.3907 182.752 80.9907 182.72C81.0227 183.104 81.0387 183.392 81.0387 184.016V189.248C81.0387 189.904 81.0227 190.352 80.9587 190.896H82.6867V190H85.3907C85.5827 190 85.6787 190 85.9507 190C85.8227 190.096 85.7907 190.128 85.6627 190.208C86.2387 190.624 86.4947 190.88 86.8787 191.408C87.8227 190.608 88.3027 190.112 88.9587 189.264C89.2947 189.824 89.4547 190.064 89.6947 190.336C90.2067 190.912 90.7667 191.232 91.2627 191.232C91.6467 191.232 91.9347 191.024 92.1747 190.608C92.4467 190.096 92.5907 189.44 92.7667 188C92.2867 187.776 91.8387 187.44 91.3747 187.04C91.3267 188.448 91.1987 189.2 91.0067 189.2C90.8307 189.2 90.3667 188.528 89.9667 187.696C90.6547 186.432 91.1027 185.392 91.5027 184.128C91.7267 183.44 91.7427 183.376 91.8227 183.216L90.2227 182.624C90.1107 183.568 89.7587 184.656 89.2307 185.824C88.8467 184.432 88.7187 183.632 88.6067 182.032H90.3827C91.0707 182.032 91.5827 182.064 92.0147 182.112V180.48C91.6947 180.528 91.5187 180.528 90.7667 180.56L91.4227 180.016C90.9427 179.616 90.5107 179.296 90.1427 179.088H90.5427C91.3267 179.088 91.8227 179.12 92.3507 179.184V177.504C91.8067 177.568 91.2787 177.6 90.5427 177.6H88.3347V177.472C88.3347 177.12 88.3507 176.928 88.3987 176.656H86.6227C86.6547 176.944 86.6707 177.152 86.6707 177.472V177.6H83.3907V177.472C83.3907 177.12 83.4067 176.976 83.4547 176.656H81.6787C81.7107 176.928 81.7267 177.136 81.7267 177.472V177.6H79.6467C78.9267 177.6 78.3987 177.568 77.8867 177.504V179.184C78.4147 179.104 78.8627 179.088 79.6467 179.088H81.7267V179.408C81.7267 179.696 81.7107 179.904 81.6787 180.16H83.4387C83.3907 179.888 83.3907 179.76 83.3907 179.376V179.088H86.6707C86.6707 179.36 86.6547 179.488 86.6227 179.712H88.3987C88.3507 179.488 88.3347 179.328 88.3347 179.088H89.7587L88.9427 179.696C89.4547 180 89.7267 180.208 90.1587 180.56H88.5747C88.5907 180.24 88.5907 180.208 88.6387 180.032H86.8787C86.9107 180.352 86.9107 180.352 86.9267 180.56H80.5747C79.8067 180.56 79.3267 180.544 78.9267 180.48C78.9747 180.992 78.9907 181.52 78.9907 182.368C78.9907 184.576 78.8627 186.272 78.6067 187.536C78.3987 188.544 78.0947 189.248 77.5187 190.032C78.0787 190.496 78.3027 190.736 78.8307 191.408C79.5347 190.352 79.9027 189.392 80.1907 187.936C80.4787 186.464 80.6387 184.464 80.6547 182.032H86.9907C87.1507 184.224 87.5347 186.112 88.1747 187.696C87.7267 188.336 87.3267 188.832 86.7667 189.344V188.576ZM83.7427 187.744V188.624H82.5107V187.744H83.7427ZM82.5107 186.624V185.92H85.3107V186.624H82.5107ZM82.5107 184.8V184.064H83.7427V184.8H82.5107ZM104.719 179.12V179.952H101.775C101.103 179.952 100.735 179.936 100.303 179.888V181.376C100.751 181.312 101.023 181.296 101.759 181.296H104.719V182.112H102.255C101.503 182.112 101.135 182.096 100.703 182.048C100.751 182.448 100.767 182.704 100.767 183.344V185.92C100.767 186.592 100.751 186.88 100.703 187.296C101.135 187.264 101.535 187.248 102.239 187.248H104.719V188.16H101.407C100.559 188.16 100.175 188.144 99.7747 188.096V189.648C100.287 189.6 100.863 189.568 101.583 189.568H104.719V189.76C104.719 190.528 104.687 190.96 104.623 191.392H106.447C106.367 190.96 106.351 190.528 106.351 189.776V189.568H109.727C110.479 189.568 111.039 189.6 111.599 189.664V188.08C111.167 188.144 110.767 188.16 109.823 188.16H106.351V187.248H109.071C109.775 187.248 110.159 187.264 110.575 187.296C110.543 186.944 110.527 186.656 110.527 185.952V183.376C110.527 182.672 110.527 182.448 110.575 182.048C110.159 182.096 109.743 182.112 109.071 182.112H106.351V181.296H109.823C110.543 181.296 110.847 181.312 111.279 181.376V179.872C110.847 179.936 110.559 179.952 109.823 179.952H106.351V179.12H109.807C110.623 179.12 111.119 179.136 111.535 179.184V177.584C111.023 177.648 110.431 177.68 109.695 177.68H105.551V177.424C105.551 176.992 105.583 176.736 105.631 176.48H103.743C103.791 176.768 103.823 177.008 103.823 177.408V177.68H99.9347C99.1347 177.68 98.5907 177.664 97.9667 177.6C98.0147 178.144 98.0307 178.512 98.0467 178.992C98.0467 179.088 98.0467 179.184 98.0467 179.248L97.9987 182.848C97.9827 183.856 97.9027 185.024 97.7907 185.92C97.5667 187.584 97.2467 188.672 96.6547 189.664C97.1987 190.144 97.4547 190.416 98.0147 191.2C98.5907 190.256 98.9907 189.2 99.2627 187.808C99.6147 186.112 99.7267 183.968 99.7267 179.12H104.719ZM104.719 183.36V184.064H102.335V183.36H104.719ZM106.351 183.36H108.943V184.064H106.351V183.36ZM104.719 185.248V186H102.335V185.248H104.719ZM106.351 185.248H108.943V186H106.351V185.248ZM121.247 181.952C121.295 181.936 121.327 181.936 121.343 181.936C121.375 181.936 121.423 181.936 121.503 181.952C121.535 181.952 121.631 181.952 121.775 181.968C121.855 181.968 122.031 181.984 122.255 181.984C123.007 182.048 123.647 182.064 124.239 182.064C124.655 182.064 125.039 182.048 125.679 182.032C125.743 184.256 125.759 185.04 125.807 185.44C125.375 185.28 124.975 185.216 124.383 185.216C122.447 185.216 121.087 186.304 121.087 187.856C121.087 189.488 122.367 190.48 124.463 190.48C126.015 190.48 127.135 189.92 127.503 188.976C127.583 188.752 127.631 188.432 127.631 188.08C127.631 187.984 127.631 187.952 127.631 187.856C127.727 187.92 128.095 188.16 128.639 188.512C129.087 188.8 129.567 189.216 129.839 189.536L130.607 187.6C130.447 187.52 130.367 187.472 130.159 187.328C129.199 186.64 128.799 186.416 127.647 185.872C127.487 183.184 127.487 183.152 127.487 182.256C127.487 182.048 127.487 182.048 127.487 181.904C128.335 181.808 129.167 181.664 129.711 181.552C129.999 181.488 130.015 181.488 130.175 181.472L130.111 179.664L129.983 179.696C129.727 179.792 129.727 179.792 129.631 179.824C129.007 179.984 128.303 180.112 127.471 180.208C127.471 179.888 127.471 179.648 127.471 179.472C127.471 178.336 127.503 177.568 127.583 177.12L125.583 177.168C125.615 177.344 125.631 177.584 125.631 177.936C125.631 178.592 125.647 179.392 125.647 180.336C125.087 180.368 124.735 180.368 124.175 180.368C122.863 180.368 122.031 180.304 121.279 180.112L121.247 181.952ZM125.839 187.072C125.839 187.072 125.839 187.328 125.839 187.504C125.839 187.936 125.775 188.176 125.631 188.368C125.391 188.688 124.927 188.864 124.335 188.864C123.439 188.864 122.863 188.464 122.863 187.872C122.863 187.216 123.503 186.816 124.527 186.816C125.007 186.816 125.311 186.88 125.839 187.072ZM119.583 190.48C119.551 190.176 119.551 190.16 119.551 190.048C119.551 188.992 120.191 187.008 121.135 185.152L119.807 184.56C119.663 184.96 119.647 185.008 119.615 185.056C119.455 185.44 119.455 185.44 119.311 185.776C119.231 186.032 119.151 186.208 119.119 186.32C119.007 186.608 119.007 186.608 118.927 186.784H118.911C118.927 186.608 118.927 186.576 118.927 186.448C118.927 186.304 118.927 186.304 118.927 186.192C118.927 185.936 118.927 185.936 118.943 185.36C118.959 182.576 119.567 178.72 120.223 177.328L118.063 177.104C118.063 177.136 118.063 177.152 118.063 177.168C118.063 177.328 117.999 177.792 117.887 178.352C117.535 180.16 117.535 180.16 117.455 180.64C117.247 182.032 117.151 183.44 117.151 184.88C117.151 186.56 117.279 188.096 117.583 189.968C117.647 190.336 117.647 190.432 117.663 190.592L119.583 190.48ZM147.935 179.744C147.535 179.872 147.391 179.888 146.671 179.888L143.119 179.904C143.167 179.392 143.167 179.248 143.183 178.896C143.215 178.064 143.215 178.064 143.247 177.728C143.247 177.616 143.263 177.52 143.263 177.424C143.279 177.2 143.295 177.136 143.327 176.928L141.183 176.88C141.231 177.168 141.231 177.296 141.231 177.504V177.904C141.231 178.368 141.199 179.296 141.151 179.904L138.351 179.92C137.551 179.92 137.119 179.888 136.575 179.792L136.591 181.76C137.119 181.696 137.343 181.68 138.319 181.68L140.975 181.664C140.959 181.776 140.927 181.936 140.895 182.16C140.751 183.28 140.511 184.064 140.079 184.944C139.231 186.656 137.919 187.92 135.919 188.976C136.591 189.568 136.815 189.824 137.359 190.672C139.375 189.392 140.799 187.936 141.679 186.24C142.399 184.864 142.735 183.664 142.959 181.664L146.687 181.648C146.687 183.488 146.527 185.664 146.335 186.768C146.079 188.16 145.839 188.512 145.151 188.512C144.623 188.512 143.983 188.4 143.039 188.144C143.327 188.88 143.375 189.184 143.407 190.192C144.239 190.32 144.783 190.368 145.391 190.368C147.311 190.368 147.871 189.712 148.287 186.944C148.447 185.888 148.623 183.424 148.671 181.616C148.687 181.056 148.719 180.832 148.847 180.544L147.935 179.744ZM157.151 179.392C157.647 179.328 157.951 179.312 158.991 179.312H164.639C165.679 179.312 165.983 179.328 166.479 179.392V177.424C165.951 177.52 165.615 177.536 164.607 177.536H159.023C158.015 177.536 157.679 177.52 157.151 177.424V179.392ZM167.295 181.248C166.799 181.36 166.479 181.392 165.487 181.392H157.871C156.751 181.392 156.399 181.376 155.791 181.28V183.232C156.367 183.168 156.767 183.152 157.839 183.152H165.631C164.927 184.928 164.239 185.904 163.055 186.896C161.823 187.92 160.559 188.512 158.607 189.008C159.311 189.792 159.503 190.064 159.855 190.864C161.871 190.112 162.911 189.568 164.047 188.688C165.711 187.408 166.927 185.632 167.759 183.28C167.951 182.784 168.047 182.56 168.207 182.272L167.295 181.248ZM174.415 180.928C174.911 180.816 175.647 180.72 177.071 180.608C180.175 180.384 181.167 180.288 182.463 180.096C181.423 180.624 180.847 181.056 180.239 181.712C179.263 182.768 178.719 184.112 178.719 185.472C178.719 187.136 179.535 188.496 181.007 189.328C181.983 189.872 182.991 190.16 184.751 190.384C185.055 190.432 185.087 190.432 185.295 190.48L185.583 188.304C185.423 188.32 185.279 188.32 185.263 188.32C184.687 188.32 183.663 188.144 182.879 187.904C181.535 187.504 180.751 186.544 180.751 185.296C180.751 183.68 181.951 182.08 183.983 181.024C185.007 180.48 186.191 180.16 187.151 180.16C187.311 180.16 187.311 180.16 187.487 180.176L187.375 178.144C187.119 178.208 187.039 178.208 185.727 178.272C181.455 178.48 178.719 178.624 177.551 178.688C175.199 178.848 175.199 178.848 174.911 178.848C174.831 178.848 174.655 178.848 174.303 178.832L174.415 180.928ZM184.207 182.464C184.911 183.232 185.359 183.872 185.887 184.848L187.007 184.256C186.463 183.264 186.031 182.656 185.327 181.904L184.207 182.464ZM188.911 183.216C188.415 182.304 187.967 181.696 187.247 180.96L186.175 181.52C186.799 182.208 187.327 182.96 187.807 183.84L188.911 183.216ZM202.639 181.488V180.448C203.903 180.416 204.191 180.416 204.575 180.416C205.903 180.416 206.671 180.448 207.263 180.496L207.247 178.656C206.655 178.72 205.407 178.752 202.623 178.768C202.639 177.392 202.639 177.36 202.703 176.864L200.687 176.88C200.767 177.296 200.767 177.296 200.783 178.816C199.951 178.848 199.951 178.848 199.423 178.864C198.111 178.896 197.951 178.896 196.911 178.928C194.847 179.008 194.591 179.008 194.191 179.008C193.903 179.008 193.759 179.008 193.407 178.976L193.471 180.88C193.903 180.816 193.903 180.816 196.319 180.64C197.023 180.592 198.527 180.544 200.815 180.48C200.815 180.912 200.815 181.808 200.831 181.84C200.831 181.952 200.831 181.952 200.847 182.032C200.479 181.728 199.871 181.552 199.183 181.552C197.327 181.552 195.999 182.768 195.999 184.464C195.999 185.376 196.351 186.08 197.103 186.624C197.647 187.024 198.223 187.2 198.959 187.2C200.015 187.2 200.847 186.8 201.311 186.064C201.183 186.96 200.543 187.776 199.455 188.4C198.703 188.848 198.047 189.072 196.735 189.328C197.263 189.904 197.423 190.144 197.871 191.136C199.359 190.624 200.095 190.288 200.767 189.824C202.319 188.752 203.151 187.248 203.151 185.504C203.151 184.64 202.991 183.984 202.639 183.248C202.639 183.056 202.623 182.928 202.623 182.864L202.639 181.488ZM200.799 184.128C200.799 184.96 200.143 185.568 199.231 185.568C198.431 185.568 197.871 185.04 197.871 184.304C197.871 183.6 198.543 183.024 199.359 183.024C200.239 183.024 200.799 183.456 200.799 184.128ZM213.441 185.84C211.953 185.84 210.737 187.056 210.737 188.544C210.737 190.048 211.953 191.264 213.441 191.264C214.929 191.264 216.145 190.048 216.145 188.544C216.145 187.056 214.945 185.84 213.441 185.84ZM213.441 187.088C214.241 187.088 214.897 187.744 214.897 188.544C214.897 189.36 214.241 190.016 213.441 190.016C212.641 190.016 211.985 189.36 211.985 188.544C211.985 187.744 212.641 187.088 213.441 187.088ZM83.472 210.176H78.992C78.224 210.176 77.744 210.144 77.28 210.08V211.872C77.744 211.808 78.208 211.792 78.928 211.792H79.392V214.128C79.392 214.864 79.584 215.216 80.112 215.408C80.704 215.632 81.664 215.712 83.632 215.712C85.296 215.712 87.456 215.664 88.432 215.616C89.904 215.536 89.904 215.536 90.448 215.52L90.432 213.872C88.592 214.048 86.56 214.128 84.48 214.128C83.008 214.128 81.808 214.08 81.52 214.016C81.2 213.952 81.12 213.84 81.12 213.52V211.792H89.888C90.624 211.792 91.072 211.808 91.552 211.872V210.08C91.088 210.144 90.624 210.176 89.904 210.176H85.248V209.68C85.248 209.2 85.28 208.864 85.344 208.56H83.376C83.456 208.944 83.472 209.152 83.472 209.696V210.176ZM78.448 222.416C79.456 220.848 79.872 219.808 80.384 217.616L78.768 217.024C78.288 219.056 77.952 219.84 76.88 221.392L78.448 222.416ZM82.8 218.352C82.8 217.552 82.816 217.216 82.88 216.832H80.992C81.072 217.296 81.088 217.68 81.088 218.352V221.392C81.088 222.112 81.264 222.432 81.76 222.656C82.208 222.88 82.752 222.928 84.4 222.928C85.456 222.928 86.592 222.88 87.04 222.816C87.68 222.72 88 222.496 88.256 222C88.464 221.584 88.544 221.232 88.704 219.824C88.064 219.712 87.584 219.552 87.008 219.264C86.976 219.888 86.944 220.24 86.944 220.336C86.896 220.768 86.848 220.976 86.768 221.072C86.576 221.312 86.096 221.376 84.256 221.376C83.536 221.376 83.168 221.344 82.976 221.264C82.848 221.2 82.8 221.088 82.8 220.8V218.352ZM86.944 218.928C86.08 217.616 85.76 217.216 84.848 216.192L83.472 216.992C84.4 218.064 84.896 218.8 85.504 219.92L86.944 218.928ZM91.84 221.312C91.12 219.68 90.48 218.56 89.248 216.832L87.776 217.6C88.864 219.168 89.456 220.304 90.224 222.272L91.84 221.312ZM100.896 214.464C100.912 214.272 100.928 214.176 100.928 214.176L100.96 213.232C101.056 213.104 101.088 213.072 101.152 212.976C101.296 212.768 101.296 212.768 101.376 212.688C101.616 212.4 101.68 212.336 101.84 212.208L101.248 211.536C101.136 211.568 101.072 211.6 101.056 211.6C101.088 210.624 101.104 210.496 101.12 210.176C101.152 209.856 101.168 209.648 101.168 209.568C101.184 209.2 101.184 209.168 101.232 208.976L99.2 208.944C99.248 209.312 99.248 209.424 99.248 209.84C99.248 210.208 99.232 210.704 99.232 211.152C99.216 211.52 99.216 211.52 99.2 211.76C98.448 211.808 97.568 211.856 97.264 211.856C97.04 211.856 96.896 211.856 96.608 211.824L96.704 213.632C97.136 213.552 97.456 213.52 99.152 213.408C99.152 213.84 99.136 213.872 99.136 214.24C99.104 214.864 99.104 215.04 99.088 215.808C98.784 216.144 98.784 216.144 97.28 217.632C96.864 218.048 96.608 218.288 96.24 218.544L97.168 220.448C97.328 220.208 97.552 219.936 97.904 219.536C98.72 218.624 98.896 218.416 99.04 218.192L99.072 218.176C99.04 218.608 99.04 218.608 99.04 220.32C99.024 222.208 99.024 222.208 98.928 222.864H100.992C100.928 222.272 100.928 222.224 100.912 220.224C100.896 218.448 100.896 218.448 100.896 218.32C100.896 217.872 100.896 217.424 100.928 216.704C101.536 215.968 102.672 214.96 103.84 214.096C104.624 213.536 105.312 213.232 105.824 213.232C106.256 213.232 106.48 213.44 106.48 213.824C106.48 214.192 106.384 214.816 106.144 215.84C105.552 218.496 105.488 218.928 105.488 219.856C105.488 220.832 105.744 221.424 106.32 221.872C106.672 222.128 107.168 222.288 107.696 222.288C108.576 222.288 109.36 221.92 110.064 221.136C110.48 220.688 110.704 220.384 111.184 219.552C110.656 218.816 110.464 218.48 110.112 217.632C109.92 218.208 109.568 218.896 109.184 219.456C108.848 219.952 108.416 220.272 108.064 220.272C107.648 220.272 107.408 219.984 107.408 219.472C107.408 218.96 107.536 218.288 108.08 215.872C108.368 214.64 108.48 213.952 108.48 213.424C108.48 212.144 107.584 211.296 106.24 211.296C105.264 211.296 104.256 211.744 102.864 212.8C101.712 213.664 101.376 213.952 100.912 214.464H100.896ZM119.68 208.736C119.648 209.424 119.472 210.384 119.2 211.52C118.848 211.536 118.576 211.536 118.384 211.536C117.408 211.536 116.8 211.504 116.224 211.392V213.216L117.072 213.232C117.408 213.248 117.504 213.248 117.712 213.248C117.904 213.248 118 213.248 118.72 213.232C118.112 215.072 117.84 215.728 117.216 217.008C116.672 218.112 116.224 218.832 115.664 219.568L117.504 220.592C117.6 220.4 117.6 220.4 117.808 220.016C118.416 218.896 118.56 218.608 118.928 217.824C119.648 216.304 120.224 214.784 120.688 213.184C121.68 213.104 122.656 212.992 123.232 212.896C123.536 212.832 123.568 212.832 123.744 212.816L123.696 210.976C123.072 211.168 122.24 211.312 121.136 211.424C121.312 210.72 121.392 210.4 121.472 210.016C121.632 209.248 121.632 209.248 121.728 208.944L119.68 208.736ZM129.92 212.896C128.496 212.032 127.296 211.472 125.408 210.752L124.448 212.304C126.24 212.928 127.664 213.616 129.056 214.544L129.92 212.896ZM129.856 220.112C129.744 220.016 129.744 220.016 129.616 219.888C129.36 219.68 129.296 219.616 129.056 219.456C127.84 218.576 127.68 218.496 126.528 217.984C126.416 217.072 126.384 216.432 126.384 215.792C126.384 215.136 126.416 214.768 126.576 214.176L124.72 214.08C124.624 214.608 124.592 215.072 124.592 215.696C124.592 216.176 124.624 216.8 124.672 217.536C124 217.424 123.664 217.392 123.184 217.392C121.152 217.392 119.728 218.528 119.728 220.144C119.728 221.776 121.104 222.832 123.216 222.832C124.352 222.832 125.312 222.512 125.872 221.936C126.288 221.52 126.56 220.832 126.56 220.24C126.56 220.176 126.544 220.064 126.528 219.92C127.472 220.464 128.4 221.216 128.976 221.904L129.856 220.112ZM124.736 219.232C124.736 219.232 124.768 219.616 124.768 219.776C124.768 220.672 124.24 221.12 123.152 221.12C122.16 221.12 121.584 220.736 121.584 220.08C121.584 219.408 122.256 218.976 123.296 218.976C123.792 218.976 124.176 219.04 124.736 219.232ZM135.712 210.24C135.76 210.592 135.76 210.704 135.776 211.264C135.84 215.696 136.128 218.016 136.784 219.616C137.424 221.152 138.288 221.936 139.36 221.936C140.72 221.936 141.648 220.64 142.48 217.52C141.696 216.944 141.44 216.704 140.88 216.064C140.704 217.136 140.416 218.096 140.032 218.96C139.84 219.408 139.616 219.648 139.376 219.648C138.864 219.648 138.352 218.624 138.08 216.96C137.904 215.984 137.776 214.064 137.776 212.672C137.776 211.616 137.824 210.832 137.904 210.24H135.712ZM143.792 211.76C144.752 212.944 145.52 214.24 146.064 215.696C146.624 217.152 146.992 218.816 147.088 220.32L149.072 219.568C148.608 216.048 147.488 213.376 145.472 210.96L143.792 211.76ZM157.216 210.816C159.568 211.408 161.776 211.696 164.688 211.824L164.96 209.856C164.768 209.856 164.592 209.856 164.512 209.856C161.984 209.856 159.616 209.52 157.84 208.928L157.216 210.816ZM155.808 216.16C157.136 215.616 160.336 215.056 162.144 215.056C163.808 215.056 164.656 215.664 164.656 216.864C164.656 217.968 163.968 218.976 162.704 219.68C161.472 220.368 159.744 220.816 157.888 220.896C158.384 221.648 158.56 222.048 158.72 222.896C161.328 222.48 162.448 222.144 163.76 221.392C165.696 220.288 166.8 218.624 166.8 216.8C166.8 215.536 166.24 214.464 165.248 213.872C164.512 213.424 163.52 213.216 162.224 213.216C160.864 213.216 159.472 213.36 157.2 213.76C155.76 214.016 155.76 214.016 155.344 214.032L155.808 216.16ZM174.032 213.008C174.096 213.008 174.144 213.008 174.16 213.008C174.288 213.008 174.448 213.008 174.672 213.024C175.52 213.088 176.24 213.12 177.088 213.136C176.864 213.92 176.272 215.472 175.744 216.688C175.504 217.248 175.232 217.744 174.992 218.128L176.928 218.8C177.216 218.4 177.504 218.16 178.096 217.872C179.12 217.376 180.352 217.088 181.536 217.088C183.264 217.088 184.224 217.632 184.224 218.624C184.224 219.904 182.72 220.72 180.4 220.72C179.056 220.72 177.712 220.464 176.272 219.952C176.416 220.752 176.432 221.072 176.432 221.984C177.68 222.352 179.088 222.544 180.512 222.544C184.016 222.544 186.304 221.008 186.304 218.64C186.304 216.608 184.624 215.392 181.808 215.392C180.24 215.392 178.848 215.744 177.776 216.432V216.4C178.096 215.824 178.704 214.288 179.04 213.152C181.04 213.104 182.448 212.992 184.768 212.736C185.184 212.688 185.328 212.672 185.696 212.656L185.6 210.72C185.04 210.88 184.736 210.944 183.552 211.088C182.496 211.216 180.688 211.344 179.472 211.376C179.568 211.072 179.568 211.072 179.856 209.872C180.016 209.232 180.016 209.232 180.112 208.944L177.968 208.768C177.936 209.456 177.824 210.128 177.52 211.408C175.872 211.408 174.8 211.328 174.064 211.136L174.032 213.008ZM195.824 222.384C195.808 222.176 195.808 222.048 195.808 221.952C195.808 220.816 196.352 218.96 197.232 217.104L195.952 216.528C195.328 217.968 195.296 218.08 195.12 218.64C195.136 218.24 195.152 218.112 195.152 217.76C195.168 216.368 195.232 215.424 195.392 214.224C195.648 212.176 196.016 210.384 196.4 209.44L194.288 209.216C194.256 209.648 194.224 209.808 194.048 210.704C193.584 213.072 193.392 214.896 193.392 216.96C193.392 218.576 193.504 219.808 193.808 221.744C193.856 222.112 193.872 222.208 193.888 222.496L195.824 222.384ZM198.032 212.8C199.728 212.976 199.744 212.976 200.912 212.976C202.096 212.976 203.312 212.912 204.336 212.784C205.104 212.688 205.344 212.656 205.472 212.64L205.376 210.704C204.32 210.992 202.8 211.136 201.024 211.136C199.632 211.136 198.784 211.072 198.064 210.88L198.032 212.8ZM199.136 215.44C198.144 216.624 197.664 217.696 197.664 218.736C197.664 219.312 197.84 219.904 198.144 220.304C198.848 221.248 200.128 221.696 202.112 221.696C203.168 221.696 204.144 221.6 205.424 221.392C205.792 221.328 205.856 221.312 206.08 221.296L205.92 219.264C204.912 219.648 203.52 219.872 202.112 219.872C200.448 219.872 199.568 219.392 199.568 218.48C199.568 217.792 199.904 217.104 200.704 216.176L199.136 215.44ZM10.2406 244.608C10.1926 244.976 10.0966 245.312 9.92063 245.824C9.63263 245.792 9.50463 245.792 9.31263 245.792C8.33663 245.792 7.96863 245.824 7.10463 246C7.12063 245.664 7.13663 245.152 7.18463 244.464C8.46463 244.432 11.0566 244.192 12.8166 243.904C13.1526 243.856 13.2166 243.856 13.4406 243.84L13.3606 242C12.1286 242.384 9.85663 242.704 7.29663 242.848C7.39263 241.728 7.45663 241.312 7.58463 240.88L5.60063 240.784C5.63263 240.912 5.63263 240.976 5.63263 241.04C5.63263 241.344 5.61663 241.744 5.60063 241.952C5.55263 242.592 5.55263 242.592 5.53663 242.912C5.21663 242.912 5.20063 242.912 5.18463 242.912C3.85663 242.912 2.91263 242.832 2.19263 242.672V244.464C2.36863 244.448 2.51263 244.448 2.56063 244.448C2.59263 244.448 2.70463 244.448 2.86463 244.448C4.41663 244.496 5.28063 244.512 5.45663 244.512C5.42463 245.28 5.39263 245.92 5.39263 246.432C4.43263 246.848 3.84063 247.248 3.20063 247.872C2.17663 248.88 1.61663 250.144 1.61663 251.456C1.61663 253.12 2.62463 254.256 4.11263 254.256C5.44063 254.256 6.86463 253.472 8.30463 251.952C9.45663 250.752 10.2086 249.6 11.0886 247.696C12.2246 248.08 12.8806 248.896 12.8806 249.904C12.8806 251.008 12.2886 251.792 11.0086 252.4C10.0646 252.848 9.24863 253.024 7.95263 253.04C8.48063 253.872 8.62463 254.16 8.80063 254.848C10.2086 254.704 11.1206 254.464 12.0646 254C13.8726 253.104 14.8166 251.744 14.8166 250C14.8166 248.736 14.3206 247.744 13.2966 246.976C12.7526 246.576 12.2886 246.352 11.6326 246.192C11.6806 246.048 11.6966 246.032 11.8566 245.584C11.9846 245.248 11.9846 245.248 12.0486 245.12L10.2406 244.608ZM5.42463 248.256C5.42463 249.808 5.50463 250.832 5.71263 251.872C5.20063 252.288 4.76863 252.48 4.32063 252.48C3.76063 252.48 3.40863 252.032 3.40863 251.312C3.40863 250.64 3.64863 249.984 4.12863 249.36C4.44863 248.96 4.72063 248.72 5.42463 248.256ZM7.23263 250.672C7.21663 250.592 7.21663 250.576 7.21663 250.496C7.21663 250.384 7.21663 250.384 7.20063 250.288C7.10463 249.168 7.10463 249.008 7.08863 247.536C7.72863 247.328 8.30463 247.248 9.00863 247.248C9.16863 247.248 9.24863 247.248 9.42463 247.264C8.83263 248.592 8.19263 249.616 7.44063 250.464C7.32863 250.592 7.32863 250.592 7.26463 250.688L7.23263 250.672ZM33.8246 252.304C33.6006 252.176 33.5206 252.112 33.2486 251.936C31.5206 250.72 30.2726 250.096 28.8646 249.68C28.8486 249.296 28.8486 249.296 28.8006 247.744C29.4246 247.712 29.6646 247.696 29.8886 247.68C31.0886 247.568 31.8086 247.488 32.0486 247.456C32.4166 247.408 32.8166 247.36 33.0886 247.344L33.0406 245.584C32.3206 245.776 32.0646 245.808 31.0566 245.936C29.5846 246.096 29.5846 246.096 28.7846 246.144C28.7686 245.152 28.7686 244.96 28.7526 244.56C30.1606 244.48 30.7846 244.432 32.1926 244.24C33.1046 244.112 33.1046 244.112 33.4566 244.096L33.3766 242.32C32.3366 242.624 30.9446 242.8 28.7686 242.928C28.7846 241.616 28.8006 241.408 28.8806 240.976H26.8486C26.9126 241.376 26.9126 241.392 26.9286 242.992C26.5286 243.008 25.9846 243.024 25.7286 243.024C23.8886 243.024 22.2406 242.896 21.4246 242.688L21.4086 244.464C21.5206 244.464 21.6006 244.464 21.6646 244.464C21.7126 244.464 21.8406 244.464 22.0166 244.48C23.0886 244.56 25.1526 244.64 25.9366 244.64C26.1766 244.64 26.4326 244.64 26.9446 244.624C26.9606 245.536 26.9606 246.08 26.9606 246.224C26.5126 246.24 25.9686 246.256 25.6486 246.256C24.1286 246.256 22.6086 246.144 21.9206 245.984L21.8886 247.712C22.1286 247.712 22.2886 247.712 22.4966 247.728C23.8246 247.824 24.4166 247.84 25.3926 247.84C25.7286 247.84 26.2246 247.824 26.9926 247.808C27.0086 248.448 27.0086 248.448 27.0246 248.672C27.0246 248.832 27.0246 248.944 27.0246 249.024C27.0406 249.216 27.0406 249.216 27.0406 249.408C26.6246 249.36 26.3526 249.344 25.9686 249.344C23.2806 249.344 21.6966 250.368 21.6966 252.112C21.6966 253.696 23.0406 254.608 25.3766 254.608C26.5446 254.608 27.4086 254.384 28.0166 253.92C28.6246 253.456 28.9126 252.768 28.9126 251.76C28.9126 251.728 28.9126 251.664 28.9126 251.584C29.2966 251.744 29.4246 251.792 29.7766 251.984C30.9286 252.576 32.0326 253.392 32.7366 254.176L33.8246 252.304ZM27.0726 251.072C27.0726 251.072 27.0726 251.392 27.0726 251.456C27.0726 251.936 27.0086 252.272 26.8806 252.48C26.6566 252.8 26.1606 252.992 25.4886 252.992C24.3526 252.992 23.6646 252.624 23.6646 252.032C23.6646 251.344 24.4486 250.928 25.7446 250.928C26.2246 250.928 26.5446 250.96 27.0726 251.072ZM41.3446 248.64C41.8886 248.416 42.1766 248.336 43.2006 248.096C45.0726 247.648 46.3046 247.472 47.4086 247.472C49.1046 247.472 50.0326 248.144 50.0326 249.392C50.0326 250.272 49.6646 250.976 48.8966 251.552C48.1766 252.112 47.4726 252.4 46.2246 252.64C45.4406 252.784 44.5446 252.88 43.9526 252.88C43.8886 252.88 43.8246 252.88 43.7126 252.88C44.1126 253.6 44.2406 253.904 44.4006 254.704C46.4806 254.464 46.8806 254.4 47.8726 254.096C50.4166 253.296 51.9206 251.568 51.9206 249.44C51.9206 248.656 51.7286 247.984 51.3286 247.376C50.6086 246.272 49.3766 245.744 47.5526 245.744C46.2246 245.744 44.7846 245.936 42.6086 246.416C41.3926 246.688 41.3926 246.688 40.9446 246.72L41.3446 248.64ZM59.3286 245.232C59.4726 245.216 59.5526 245.216 59.6326 245.216C59.7606 245.216 59.9846 245.216 60.2726 245.232C60.5446 245.248 60.7046 245.248 60.7846 245.248H61.7126C61.7446 245.248 61.8086 245.248 61.9206 245.232C61.3926 248.08 60.1606 251.808 59.0566 253.84L61.0726 254.624C62.1286 251.792 62.4006 250.992 62.8646 249.328C63.2806 247.872 63.6806 246.176 63.8566 245.184C64.3846 245.168 65.6646 245.008 66.4806 244.848C66.8646 244.784 66.8646 244.784 66.9926 244.768L66.9126 242.928C66.1126 243.168 65.3606 243.296 64.1766 243.408C64.2406 243.04 64.2566 242.944 64.3366 242.496C64.5286 241.328 64.5286 241.328 64.6406 240.96L62.5286 240.768C62.5446 240.896 62.5446 240.992 62.5446 241.056C62.5446 241.504 62.3846 242.736 62.2406 243.504C61.8726 243.52 61.6966 243.52 61.5046 243.52C60.5766 243.52 59.9366 243.472 59.3606 243.376L59.3286 245.232ZM72.0166 245.584C71.0086 245.568 70.8646 245.568 70.4326 245.568C68.7046 245.568 67.9366 245.648 65.6646 246.08L65.8086 247.84C67.3926 247.488 68.4486 247.376 70.0326 247.376C70.8326 247.376 71.2806 247.408 72.0486 247.488L72.0166 245.584ZM65.7126 248.944C64.8326 250.144 64.5286 250.864 64.5286 251.712C64.5286 252.512 64.9766 253.28 65.6646 253.68C66.4326 254.112 67.4566 254.32 68.8806 254.32C69.8246 254.32 70.5286 254.256 71.8566 254.064C72.2246 254 72.3526 253.984 72.6406 253.952L72.4966 251.984C71.5686 252.32 70.0326 252.576 68.8646 252.576C67.2646 252.576 66.4646 252.16 66.4646 251.344C66.4646 250.784 66.6566 250.384 67.2966 249.584L65.7126 248.944ZM83.6486 250.496C84.3046 251.568 84.9286 252.272 85.9846 253.104C87.3926 254.224 89.0726 254.912 91.5846 255.408C91.7926 254.8 92.0006 254.336 92.4006 253.632C90.9126 253.472 89.9046 253.248 88.7686 252.816C89.7286 252.176 90.6086 251.504 91.6166 250.608L90.0006 249.744C89.8566 249.904 89.8246 249.952 89.6966 250.096C89.6806 249.84 89.6806 249.696 89.6806 249.376V246.048C89.6806 245.824 89.6806 245.728 89.6806 245.472C90.3846 245.84 90.9286 246.096 91.7926 246.416C92.0166 245.712 92.2566 245.184 92.5926 244.64C91.2166 244.256 89.8886 243.68 88.7046 242.96C87.5046 242.24 86.6726 241.536 85.8566 240.576H83.9686C82.5606 242.32 80.2086 243.808 77.4406 244.688C77.8566 245.424 77.9366 245.6 78.2246 246.432C79.1206 246.064 79.4726 245.904 80.2246 245.52C80.2406 245.936 80.2406 246.048 80.2406 246.24V253.456C79.6006 253.536 78.6406 253.616 78.4326 253.616C78.4166 253.616 78.3846 253.616 78.3526 253.616H78.1926L78.4966 255.456C78.8166 255.376 79.0246 255.344 79.2326 255.296C82.0966 254.816 83.3446 254.576 85.0406 254.176V252.64C83.5846 252.96 83.4566 252.976 81.9206 253.216V250.496H83.6486ZM88.2886 250.496C88.6406 250.496 88.9126 250.496 89.2646 250.512C88.5446 251.168 88.0646 251.52 87.2166 252.048C86.5126 251.6 86.0006 251.12 85.5526 250.496H88.2886ZM81.7766 244.592C83.0726 243.76 84.0326 242.944 84.9286 241.92C85.8406 242.928 86.8166 243.744 88.1766 244.592H85.7126V244.128C85.7126 243.68 85.7286 243.456 85.7766 243.168H84.0166C84.0806 243.424 84.0966 243.68 84.0966 244.128V244.592H81.7766ZM81.9206 246.032H88.0006V246.832H81.9206V246.032ZM81.9206 248.192H88.0006V249.088H81.9206V248.192ZM107.249 245.072C106.177 247.52 104.577 249.408 102.193 251.04C102.721 251.568 102.945 251.84 103.361 252.464C104.673 251.456 105.553 250.592 106.417 249.456C107.041 248.624 107.601 247.728 107.921 247.072L107.953 253.04C107.953 253.376 107.809 253.44 107.073 253.44C106.529 253.44 106.097 253.408 105.313 253.28C105.569 253.936 105.649 254.32 105.729 255.024C106.289 255.072 106.817 255.088 107.345 255.088C108.241 255.088 108.737 255.024 109.041 254.88C109.505 254.656 109.697 254.208 109.697 253.344L109.649 245.072H110.113C110.769 245.072 111.297 245.104 111.697 245.168V243.408C111.297 243.472 110.817 243.504 110.113 243.504H109.633V242.512C109.633 241.76 109.649 241.168 109.713 240.592H107.777C107.857 241.216 107.889 241.712 107.889 242.512V243.504H105.585C104.833 243.504 104.321 243.472 103.857 243.424V245.152C104.289 245.104 104.817 245.072 105.569 245.072H107.249ZM102.209 245.04C102.625 245.04 103.041 245.072 103.441 245.12V243.392C103.041 243.44 102.657 243.472 102.193 243.472H101.329V242.112C101.329 241.408 101.361 240.992 101.425 240.544H99.5686C99.6326 241.024 99.6646 241.472 99.6646 242.112V243.472H98.7366C98.0326 243.472 97.6646 243.456 97.2166 243.392V245.136C97.6646 245.072 98.0966 245.04 98.6726 245.04H99.4726C99.1686 245.952 99.0406 246.256 98.7046 247.008C98.0966 248.336 97.6486 249.072 96.7686 250.144C97.1526 250.688 97.4246 251.248 97.6646 251.968C98.5286 250.88 99.2326 249.472 99.7766 247.792C99.6806 248.88 99.6806 248.88 99.6806 249.44C99.6806 249.712 99.6806 249.712 99.6646 250.32V253.488C99.6646 254.24 99.6326 254.848 99.5686 255.344H101.425C101.361 254.832 101.329 254.24 101.329 253.488V249.824C101.329 248.592 101.313 248.16 101.217 247.168C101.905 248.4 102.017 248.576 102.721 249.376C103.009 248.752 103.217 248.384 103.601 247.888C102.545 246.944 101.905 246.128 101.409 245.04H102.209ZM117.201 244.32C117.313 244.304 117.409 244.304 117.457 244.304C117.601 244.304 117.601 244.304 117.905 244.32C118.257 244.32 119.665 244.352 119.921 244.352C119.921 244.352 120.129 244.336 120.193 244.336C120.129 244.416 120.129 244.416 120.065 244.544C119.745 245.152 118.769 246.544 118.145 247.28C117.585 247.936 117.121 248.384 116.705 248.704L118.161 250.144C118.513 249.648 118.881 249.248 119.553 248.688C120.785 247.6 121.905 247.04 122.833 247.04C123.409 247.04 123.729 247.312 123.809 247.904C122.001 248.656 121.089 249.264 120.369 250.16C119.857 250.768 119.665 251.28 119.665 251.936C119.665 252.816 120.097 253.584 120.833 254C121.649 254.48 122.705 254.672 124.401 254.672C125.809 254.672 127.345 254.56 128.497 254.384C128.881 254.336 128.961 254.32 129.233 254.32L129.073 252.256C127.937 252.688 126.289 252.928 124.369 252.928C122.433 252.928 121.665 252.592 121.665 251.76C121.665 251.296 121.937 250.864 122.497 250.448C122.833 250.208 123.249 249.984 124.033 249.616C124.033 249.776 124.033 249.776 124.033 250C124.033 250.752 124.001 251.568 123.937 251.856L125.793 251.808C125.761 251.536 125.745 251.312 125.745 250.96C125.745 250.848 125.745 250.704 125.761 250.432C125.761 250.224 125.761 249.952 125.761 249.792C125.761 249.568 125.761 249.568 125.745 249.152V248.976C127.121 248.496 127.921 248.224 128.145 248.16C128.993 247.92 129.473 247.792 129.921 247.728L129.169 245.888C128.913 246.048 128.849 246.064 127.985 246.368C127.585 246.496 126.769 246.784 125.537 247.232C125.281 246.128 124.497 245.536 123.249 245.536C122.433 245.536 121.585 245.808 120.993 246.256C120.785 246.416 120.785 246.416 120.673 246.496L120.657 246.464C121.217 245.888 121.665 245.248 122.129 244.336C123.745 244.288 125.777 244.16 126.945 244.016C127.761 243.92 127.761 243.92 128.209 243.888L128.097 242.064C127.217 242.32 125.761 242.496 123.905 242.608C123.025 242.656 123.025 242.656 122.897 242.672C122.929 242.608 122.961 242.56 123.041 242.384C123.585 241.104 123.585 241.104 123.681 240.944L121.585 240.72C121.521 241.264 121.377 241.744 120.945 242.704C118.913 242.704 117.889 242.64 117.233 242.496L117.201 244.32ZM141.665 242.048C141.201 242.048 140.817 242.032 140.417 241.984C140.449 242.384 140.481 242.736 140.481 243.104V251.2C140.481 251.6 140.465 251.968 140.433 252.304C140.785 252.272 141.137 252.256 141.601 252.256H148.065C148.481 252.256 148.801 252.272 149.153 252.304C149.121 251.952 149.105 251.6 149.105 251.2V248.784C149.105 248.24 149.121 247.904 149.153 247.568C148.849 247.6 148.609 247.616 148.033 247.616H142.161V246.464H147.569C148.065 246.464 148.321 246.48 148.721 246.496C148.673 246.192 148.673 245.84 148.673 245.296V243.104C148.673 242.688 148.689 242.336 148.721 241.984C148.401 242.032 148.065 242.048 147.569 242.048H144.945C145.265 241.568 145.457 241.248 145.761 240.688L143.905 240.416C143.681 240.976 143.393 241.536 143.057 242.048H141.665ZM142.161 243.568H146.993V245.008H142.161V243.568ZM142.161 249.088H147.425V250.72H142.161V249.088ZM135.377 241.936C136.465 242.944 137.057 243.616 138.033 244.992L139.393 243.696C138.385 242.4 137.889 241.872 136.657 240.768L135.377 241.936ZM135.393 248.48C135.793 248.416 136.049 248.4 136.497 248.4H137.393V251.744C136.545 252.48 135.601 253.136 135.057 253.344L135.825 255.168C135.937 255.072 136.177 254.88 136.417 254.688C137.057 254.224 137.553 253.776 138.225 253.12C138.849 253.888 139.473 254.336 140.257 254.608C141.105 254.88 142.305 254.992 144.641 254.992C146.465 254.992 148.017 254.976 149.809 254.928C149.921 254.192 150.001 253.872 150.289 253.104C148.657 253.28 146.753 253.36 143.649 253.36C141.569 253.36 140.609 253.216 139.937 252.784C139.505 252.496 139.281 252.24 139.057 251.76V248.416C139.057 247.552 139.073 247.168 139.121 246.672C138.737 246.736 138.385 246.752 137.905 246.752H136.673C136.049 246.752 135.793 246.736 135.393 246.672V248.48ZM158.785 243.296C158.833 241.888 158.833 241.888 158.833 241.584C158.849 241.056 158.865 240.864 158.929 240.528H157.009C157.073 240.928 157.105 241.312 157.105 241.952C157.105 242.8 157.105 242.832 157.089 243.296H156.369C155.537 243.296 155.041 243.264 154.609 243.2V245.072C155.073 245.008 155.537 244.976 156.225 244.976H157.025C156.897 246.896 156.673 248.208 156.273 249.568C155.793 251.184 155.153 252.368 154.145 253.552C154.673 254.048 155.025 254.48 155.457 255.184C156.689 253.568 157.393 252.16 157.905 250.288C158.353 248.656 158.593 247.136 158.721 244.976H160.257C160.225 247.312 160.225 247.312 160.161 248.72C160.065 250.496 159.921 251.904 159.745 252.512C159.601 253.04 159.457 253.152 159.009 253.152C158.641 253.152 158.049 253.072 157.441 252.96C157.649 253.68 157.697 253.888 157.729 254.672C158.417 254.752 159.009 254.784 159.409 254.784C160.721 254.784 161.185 254.368 161.473 252.96C161.761 251.6 161.921 249.184 161.953 245.84C161.969 243.824 161.969 243.792 162.033 243.232C161.537 243.28 161.073 243.296 160.241 243.296H158.785ZM164.689 253.664H167.041V254.8H168.849C168.785 254.288 168.753 253.792 168.753 253.024V243.856C168.753 243.12 168.769 242.704 168.833 242.176C168.385 242.24 168.033 242.256 167.393 242.256H164.353C163.745 242.256 163.377 242.24 162.913 242.176C162.977 242.704 162.993 243.12 162.993 243.856V253.04C162.993 253.76 162.961 254.384 162.897 254.88H164.689V253.664ZM164.689 243.856H167.041V252.064H164.689V243.856ZM176.305 241.216C176.353 241.632 176.369 241.856 176.369 242.304C176.369 242.528 176.369 242.864 176.353 243.344C176.257 247.36 176.225 248.96 176.225 249.792C176.225 251.936 176.689 253.168 177.793 253.904C178.465 254.352 179.489 254.608 180.593 254.608C182.609 254.608 184.193 253.936 185.393 252.576C186.177 251.696 186.657 250.656 187.297 248.496C186.513 248.144 186.225 247.968 185.361 247.264C185.185 248.368 184.977 249.12 184.625 249.952C183.873 251.712 182.481 252.688 180.753 252.688C179.745 252.688 178.977 252.384 178.609 251.856C178.289 251.376 178.193 250.8 178.193 249.28C178.193 248.144 178.289 244.896 178.353 243.408C178.417 242.176 178.449 241.712 178.545 241.248L176.305 241.216ZM192.82 244.96C193.444 244.832 194.404 244.72 195.476 244.64C198.948 244.384 199.572 244.336 200.868 244.144C199.828 244.672 199.252 245.088 198.644 245.744C197.668 246.816 197.124 248.16 197.124 249.52C197.124 251.184 197.94 252.544 199.412 253.376C200.388 253.92 201.396 254.208 203.156 254.432C203.428 254.464 203.508 254.48 203.7 254.528L203.988 252.352C203.828 252.368 203.684 252.368 203.668 252.368C203.092 252.368 202.068 252.192 201.284 251.952C199.94 251.552 199.156 250.592 199.156 249.344C199.156 247.728 200.356 246.128 202.388 245.072C203.412 244.528 204.596 244.208 205.556 244.208C205.716 244.208 205.716 244.208 205.892 244.224L205.78 242.176C205.492 242.256 205.252 242.272 203.94 242.336C199.508 242.544 196.852 242.688 195.956 242.736C193.604 242.896 193.604 242.896 193.316 242.896C193.236 242.896 193.06 242.896 192.708 242.88L192.82 244.96ZM217.252 249.104C218.388 248.752 219.364 248.576 220.324 248.576C222.036 248.576 223.156 249.472 223.156 250.848C223.156 251.872 222.484 252.624 221.54 252.624C221.092 252.624 220.708 252.416 220.532 252.08C220.372 251.776 220.308 251.344 220.308 250.672C220.308 250.416 220.308 250.272 220.34 249.968C219.652 250.336 219.38 250.448 218.564 250.672C218.564 251.648 218.628 252.176 218.836 252.72C219.252 253.872 220.164 254.496 221.46 254.496C223.54 254.496 225.092 252.928 225.092 250.848C225.092 248.576 223.188 246.944 220.516 246.944C219.348 246.944 218.34 247.072 217.252 247.392V245.312C217.86 245.248 218.18 245.2 218.708 245.104C219.812 244.912 220.116 244.864 220.404 244.816L220.34 243.024C219.524 243.28 218.452 243.488 217.252 243.632V242.608C217.252 241.712 217.268 241.376 217.348 240.864H215.348C215.428 241.376 215.444 241.792 215.444 242.704V243.76C215.268 243.76 215.188 243.76 214.804 243.776C214.58 243.792 214.404 243.792 214.244 243.792C213.396 243.792 212.756 243.744 212.308 243.648L212.324 245.44C212.468 245.424 212.596 245.424 212.66 245.424C212.708 245.424 212.852 245.424 213.06 245.44C213.252 245.44 213.7 245.456 213.94 245.456C214.34 245.456 214.564 245.456 214.804 245.44C215.332 245.408 215.332 245.408 215.46 245.408L215.476 247.872C214.42 248.32 213.716 248.736 213.14 249.232C212.26 250 211.764 250.848 211.764 251.6C211.764 252.288 212.068 252.912 212.644 253.408C213.444 254.096 214.66 254.544 215.668 254.544C216.42 254.544 216.996 254.176 217.14 253.616C217.236 253.296 217.268 252.912 217.268 252.256L217.252 249.104ZM215.46 252.016C215.46 252.544 215.38 252.688 215.108 252.688C214.804 252.688 214.404 252.56 214.084 252.336C213.716 252.112 213.556 251.872 213.556 251.6C213.556 251.024 214.26 250.32 215.46 249.68V252.016ZM225.796 245.264C224.948 244.016 224.02 243.056 222.628 241.984L221.124 242.992C222.356 243.92 223.524 245.184 224.324 246.448L225.796 245.264ZM233.252 243.84C233.476 243.84 233.524 243.856 233.844 243.888C234.628 244 235.956 244.08 236.772 244.08C237.78 244.08 238.468 244.048 239.172 243.952C238.436 244.368 237.652 244.848 236.82 245.376L238.212 246.48C239.796 245.328 241.524 244.256 242.484 243.824L242.42 242.032C241.364 242.256 240.228 242.336 238.196 242.336C236.052 242.336 234.628 242.224 233.396 241.936L233.252 243.84ZM234.436 247.456C232.996 248.656 232.372 249.712 232.372 250.928C232.372 252.176 233.044 253.072 234.42 253.6C235.268 253.952 236.676 254.128 238.42 254.128C239.796 254.128 240.82 254.048 242.74 253.776C243.076 253.728 243.172 253.728 243.444 253.712L243.268 251.52C242.244 251.904 240.148 252.192 238.244 252.192C235.54 252.192 234.372 251.744 234.372 250.704C234.372 250.016 234.82 249.344 235.828 248.512L234.436 247.456ZM252.575 242.816C254.927 243.408 257.135 243.696 260.047 243.824L260.319 241.856C260.127 241.856 259.951 241.856 259.871 241.856C257.343 241.856 254.975 241.52 253.199 240.928L252.575 242.816ZM251.167 248.16C252.495 247.616 255.695 247.056 257.503 247.056C259.167 247.056 260.015 247.664 260.015 248.864C260.015 249.968 259.327 250.976 258.063 251.68C256.831 252.368 255.103 252.816 253.247 252.896C253.743 253.648 253.919 254.048 254.079 254.896C256.687 254.48 257.807 254.144 259.119 253.392C261.055 252.288 262.159 250.624 262.159 248.8C262.159 247.536 261.599 246.464 260.607 245.872C259.871 245.424 258.879 245.216 257.583 245.216C256.223 245.216 254.831 245.36 252.559 245.76C251.119 246.016 251.119 246.016 250.703 246.032L251.167 248.16ZM276.703 250.784C276.671 250.464 276.671 250.304 276.671 250.112C276.671 249.888 276.671 249.888 276.703 248.96L276.927 243.52C276.959 242.832 277.023 242 277.071 241.568H274.447C274.511 242.016 274.559 242.816 274.591 243.52L274.815 248.96C274.863 249.92 274.863 249.92 274.863 250.096C274.863 250.288 274.847 250.448 274.831 250.784H276.703ZM276.927 254.288V252.096H274.607V254.288H276.927Z" fill="black" fill-opacity="0.8"/>
<path d="M275.532 321.532C276.636 321.532 277.532 320.636 277.532 319.532L277.532 301.532C277.532 300.427 276.636 299.532 275.532 299.532C274.427 299.532 273.532 300.427 273.532 301.532V317.532L257.532 317.532C256.427 317.532 255.532 318.427 255.532 319.532C255.532 320.636 256.427 321.532 257.532 321.532L275.532 321.532ZM238.586 285.414L274.117 320.946L276.946 318.117L241.414 282.586L238.586 285.414Z" fill="#C4C4C4"/>
<path d="M151.515 107.184H131.485L130.252 102.311H103.372V118.193C103.372 124.161 108.211 129 114.18 129H168.821C174.79 129 179.628 124.161 179.628 118.193V102.311H152.748L151.515 107.184Z" fill="#B8E0E5"/>
<path d="M151.515 76.6819H131.485L130.252 71.8082H103.372V98.4976H179.628V71.8082H152.748L151.515 76.6819Z" fill="#B8E0E5"/>
<path d="M168.821 0H114.18C108.211 0 103.372 4.83851 103.372 10.8073V67.9956H179.628V10.8073C179.628 4.83851 174.789 0 168.821 0ZM119.815 40.9857C119.815 42.2142 118.819 43.2105 117.59 43.2105C116.362 43.2105 115.366 42.2142 115.366 40.9857V23.83C115.366 22.6012 116.362 21.6052 117.59 21.6052C118.819 21.6052 119.815 22.6012 119.815 23.83V40.9857Z" fill="#B8E0E5"/>
</svg>
